<svg width="205" height="32" viewBox="0 0 205 32" fill="none" xmlns="http://www.w3.org/2000/svg"><g clip-path="url(#clip0_54_70762)"><path d="M169.692 20.682a4.68 4.68 0 01-1.565 1.656c-.675.442-1.504.662-2.488.663a4.7 4.7 0 01-1.804-.34 4.277 4.277 0 01-2.374-2.387 5.012 5.012 0 01-.017-3.57 4.447 4.447 0 01.897-1.447 4.286 4.286 0 011.396-.984 4.393 4.393 0 011.813-.366 4.638 4.638 0 011.804.331c.51.21.968.524 1.342.924.378.415.666.902.845 1.43a5.04 5.04 0 01.273 1.83 3.438 3.438 0 01-.034.453h-6.683c.025.37.128.731.302 1.06a2.433 2.433 0 001.422 1.183c.282.09.575.138.871.14.5.02.994-.121 1.405-.401.367-.268.676-.606.906-.994l1.689.819zm-1.831-3.289a2.385 2.385 0 00-.169-.584 1.777 1.777 0 00-.409-.592 2.36 2.36 0 00-.711-.462 2.617 2.617 0 00-1.057-.192 2.257 2.257 0 00-1.467.497 2.438 2.438 0 00-.827 1.333h4.64zm-28.955-1.525h-1.508v-1.686h1.508v-2.58h1.947v2.58h2.123v1.686h-2.123v3.85a2.3 2.3 0 00.07.584c.039.16.111.31.211.442a.96.96 0 00.754.335c.148.005.295-.01.439-.043a1.88 1.88 0 00.333-.129l.596 1.686c-.25.093-.509.165-.772.215-.3.054-.606.08-.912.077a2.87 2.87 0 01-1.087-.193 2.612 2.612 0 01-.824-.526c-.503-.503-.755-1.187-.755-2.053v-4.245zm9.689-1.961a4.746 4.746 0 011.806.335 4.2 4.2 0 011.421.938c.404.41.72.896.93 1.428a4.97 4.97 0 010 3.577 4.274 4.274 0 01-.93 1.428 4.198 4.198 0 01-1.421.937 5.03 5.03 0 01-3.613 0 4.19 4.19 0 01-2.35-2.365 4.97 4.97 0 010-3.577c.21-.532.526-1.018.93-1.428a4.194 4.194 0 011.42-.938 4.752 4.752 0 011.807-.335zm0 7.207c.325 0 .648-.064.947-.19a2.63 2.63 0 00.816-.532c.248-.242.442-.532.57-.852a3.22 3.22 0 000-2.288 2.479 2.479 0 00-.57-.851 2.637 2.637 0 00-.816-.533 2.466 2.466 0 00-1.894 0 2.622 2.622 0 00-.816.533 2.477 2.477 0 00-.57.851 3.22 3.22 0 000 2.288c.128.32.322.61.57.852.235.226.512.407.816.533.299.125.621.19.947.189zm6.249-6.929h1.866v1.29h.106c.111-.228.258-.436.436-.619.182-.19.392-.355.621-.489.231-.134.475-.245.729-.33a2.25 2.25 0 01.737-.13c.245-.005.49.022.728.079.203.054.398.132.582.232l-.654 1.721a2.055 2.055 0 00-.381-.107 3.166 3.166 0 00-.577-.044 2.003 2.003 0 00-.88.193 2.283 2.283 0 00-.701.525 2.38 2.38 0 00-.471.788 2.732 2.732 0 00-.169.963v4.36h-1.972v-8.432zm-25.613 7.777c.43.306.909.54 1.417.694a5.663 5.663 0 003.172.009 4.511 4.511 0 001.471-.703 3.908 3.908 0 001.081-1.208c.295-.54.44-1.146.421-1.758a3.825 3.825 0 00-.272-1.495 3.533 3.533 0 00-.76-1.132 4.831 4.831 0 00-1.152-.842 9.3 9.3 0 00-1.467-.617l-.868-.303a6.842 6.842 0 01-1.804-.852 1.479 1.479 0 01-.478-.537 1.451 1.451 0 01-.165-.695c-.001-.246.063-.49.186-.704.125-.216.293-.405.495-.556.219-.163.467-.286.731-.363a3.07 3.07 0 01.893-.127c.322-.006.644.048.947.157.254.095.492.227.707.391.195.151.361.335.492.542.101.16.186.328.255.503l1.794-.742a4.832 4.832 0 00-.434-.837 3.664 3.664 0 00-.817-.893 4.382 4.382 0 00-1.254-.674 5.127 5.127 0 00-1.729-.269 5.022 5.022 0 00-1.729.287 4.216 4.216 0 00-1.347.785 3.585 3.585 0 00-.873 1.15 3.22 3.22 0 00-.309 1.388 3.09 3.09 0 00.289 1.376c.187.382.441.728.751 1.022.311.291.66.54 1.039.74.363.195.741.36 1.131.495l.867.302c.442.152.875.327 1.298.523.32.144.618.33.887.551.214.18.386.402.504.653.11.25.165.52.162.791.006.305-.068.605-.214.874a2.022 2.022 0 01-.553.632 2.39 2.39 0 01-.801.383 3.534 3.534 0 01-.948.126 2.782 2.782 0 01-1.084-.206 3.065 3.065 0 01-.873-.554 3.251 3.251 0 01-.653-.824 4.152 4.152 0 01-.377-.913l-1.906.761c.16.542.408 1.055.734 1.52.314.442.7.83 1.143 1.149zm-57.908.925c-3.917 0-7.21-3.127-7.21-6.968 0-3.84 3.293-6.968 7.21-6.968a6.889 6.889 0 012.632.479c.837.33 1.597.82 2.238 1.441l-1.369 1.343a5.003 5.003 0 00-3.5-1.36c-2.861 0-5.096 2.261-5.096 5.065 0 2.804 2.235 5.065 5.095 5.065 1.854 0 2.911-.731 3.587-1.394.555-.544.919-1.326 1.057-2.396h-4.644v-1.903h6.534c.073.392.107.79.103 1.189 0 1.427-.398 3.195-1.681 4.452-1.248 1.275-2.842 1.955-4.956 1.955zM88.291 18.4a4.39 4.39 0 01-.34 1.715 4.458 4.458 0 01-.985 1.456 4.557 4.557 0 01-1.48.974 4.63 4.63 0 01-3.494 0 4.558 4.558 0 01-1.48-.974 4.458 4.458 0 01-.985-1.456 4.386 4.386 0 01-.34-1.715 4.39 4.39 0 01.34-1.715 4.459 4.459 0 01.986-1.456 4.558 4.558 0 011.48-.973 4.63 4.63 0 013.494 0 4.56 4.56 0 011.48.973c.422.417.757.912.984 1.456a4.39 4.39 0 01.34 1.715zm-1.992 0c0-1.614-1.186-2.72-2.559-2.72-1.375 0-2.56 1.106-2.56 2.72 0 1.598 1.185 2.72 2.56 2.72 1.374 0 2.56-1.122 2.56-2.72zm12.107 0a4.39 4.39 0 01-.34 1.715 4.458 4.458 0 01-.985 1.456 4.557 4.557 0 01-1.48.974 4.63 4.63 0 01-3.494 0 4.557 4.557 0 01-1.48-.974 4.458 4.458 0 01-.985-1.456 4.386 4.386 0 01-.34-1.715 4.39 4.39 0 01.34-1.715 4.459 4.459 0 01.986-1.456 4.558 4.558 0 011.479-.973 4.63 4.63 0 013.494 0 4.56 4.56 0 011.48.973c.423.417.758.912.985 1.456a4.39 4.39 0 01.34 1.715zm-1.993 0c0-1.614-1.185-2.72-2.56-2.72-1.373 0-2.559 1.106-2.559 2.72 0 1.598 1.186 2.72 2.56 2.72s2.559-1.122 2.559-2.72zm11.89-4.215v8.056c0 3.314-1.992 4.673-4.35 4.673a4.419 4.419 0 01-2.44-.718 4.287 4.287 0 01-1.614-1.932l1.749-.714c.312.73 1.076 1.597 2.305 1.597 1.508 0 2.444-.918 2.444-2.634v-.646h-.069c-.45.544-1.317 1.02-2.409 1.02-2.287 0-4.384-1.955-4.384-4.47 0-2.532 2.097-4.503 4.384-4.503 1.092 0 1.959.476 2.409 1.002h.069v-.73h1.906zm-1.768 4.232c0-1.58-1.074-2.736-2.442-2.736-1.388 0-2.549 1.156-2.549 2.736 0 1.564 1.161 2.702 2.549 2.702 1.368 0 2.442-1.138 2.442-2.702zm5.806-8.989v13.187h-2.009V9.428h2.009zm8.554 10.45l1.559 1.02a4.52 4.52 0 01-1.651 1.466 4.62 4.62 0 01-2.162.523c-2.599 0-4.541-1.971-4.541-4.487 0-2.668 1.959-4.486 4.315-4.486 2.375 0 3.537 1.852 3.918 2.854l.207.51-6.117 2.482c.468.9 1.195 1.359 2.218 1.359s1.733-.493 2.254-1.24zm-4.801-1.614l4.09-1.665c-.226-.561-.902-.952-1.699-.952a2.482 2.482 0 00-2.391 2.617z" fill="#5F6368"/><path d="M57.39 16.194a10.004 10.004 0 00-.266-2.446H45.442v4.433h6.854c-.136 1.109-.89 2.76-2.546 3.876v2.93h3.927c2.35-2.083 3.713-5.152 3.713-8.793z" fill="#4285F4"/><path d="M45.442 27.881c3.357 0 6.175-1.07 8.235-2.895l-3.927-2.929c-1.049.707-2.457 1.201-4.308 1.201a7.6 7.6 0 01-4.354-1.374 7.367 7.367 0 01-2.73-3.599h-4.025v3.002a12.319 12.319 0 004.61 4.829 12.646 12.646 0 006.5 1.765z" fill="#34A853"/><path d="M38.358 18.285a7.077 7.077 0 010-4.725v-3.002h-4.025A11.477 11.477 0 0033 15.922c0 1.867.457 3.707 1.333 5.365l4.025-3.002z" fill="#FBBC04"/><path d="M45.442 8.587c2.343 0 3.907.968 4.805 1.78l3.52-3.287c-2.156-1.93-4.967-3.117-8.325-3.117a12.645 12.645 0 00-6.5 1.766 12.318 12.318 0 00-4.609 4.829l4.025 3.002a7.367 7.367 0 012.73-3.6 7.6 7.6 0 014.354-1.373z" fill="#EA4335"/></g><defs><clipPath id="clip0_54_70762"><path fill="#fff" transform="translate(33 4)" d="M0 0h138v24H0z"/></clipPath></defs></svg>